<svg xmlns="http://www.w3.org/2000/svg" width="1920" height="1080" viewBox="0 0 1920 1080">
  <defs>
    <linearGradient id="bg" x1="0" x2="1" y1="0" y2="1">
      <stop offset="0" stop-color="#222d25"/>
      <stop offset="1" stop-color="#0f1511"/>
    </linearGradient>
    <linearGradient id="ring" x1="0" x2="1" y1="0" y2="0">
      <stop offset="0" stop-color="#54b144"/>
      <stop offset="1" stop-color="#ffffff"/>
    </linearGradient>
    <filter id="blur" x="-20%" y="-20%" width="140%" height="140%">
      <feGaussianBlur stdDeviation="22"/>
    </filter>
  </defs>
  <rect width="1920" height="1080" fill="url(#bg)"/>
  <g opacity="0.75" filter="url(#blur)">
    <circle cx="520" cy="540" r="340" fill="#54b144" fill-opacity="0.22"/>
    <circle cx="1480" cy="420" r="420" fill="#ffffff" fill-opacity="0.10"/>
  </g>
  <g opacity="0.95">
    <circle cx="960" cy="560" r="290" fill="none" stroke="url(#ring)" stroke-width="14" stroke-linecap="round"/>
    <circle cx="960" cy="560" r="220" fill="none" stroke="#ffffff" stroke-opacity="0.18" stroke-width="10"/>
    <path d="M960 350 L1025 520 L1210 520 L1060 630 L1115 810 L960 705 L805 810 L860 630 L710 520 L895 520 Z" fill="#ffffff" fill-opacity="0.12"/>
    <path d="M330 840 C 520 740, 720 900, 920 820 S 1360 700, 1620 820 S 1860 930, 1920 820 L 1920 1080 L 0 1080 L 0 900 C 90 900, 190 910, 330 840 Z" fill="#54b144" fill-opacity="0.10"/>
  </g>
</svg>

