<svg xmlns="http://www.w3.org/2000/svg" width="1920" height="1080" viewBox="0 0 1920 1080">
  <defs>
    <linearGradient id="bg" x1="0" x2="1" y1="0" y2="1">
      <stop offset="0" stop-color="#222d25"/>
      <stop offset="0.55" stop-color="#2b3b30"/>
      <stop offset="1" stop-color="#54b144"/>
    </linearGradient>
    <radialGradient id="glow" cx="72%" cy="35%" r="60%">
      <stop offset="0" stop-color="#ffffff" stop-opacity="0.28"/>
      <stop offset="1" stop-color="#ffffff" stop-opacity="0"/>
    </radialGradient>
    <filter id="soft" x="-20%" y="-20%" width="140%" height="140%">
      <feGaussianBlur stdDeviation="18"/>
    </filter>
  </defs>
  <rect width="1920" height="1080" fill="url(#bg)"/>
  <circle cx="1350" cy="330" r="520" fill="url(#glow)"/>
  <g opacity="0.65" filter="url(#soft)">
    <path d="M-40 870 C 220 760, 420 980, 700 860 S 1200 720, 1540 870 S 1960 980, 2000 840 L 2000 1120 L -40 1120 Z" fill="#ffffff" fill-opacity="0.08"/>
    <path d="M-40 960 C 260 850, 460 1060, 760 940 S 1300 780, 1660 950 S 1960 1060, 2000 930 L 2000 1120 L -40 1120 Z" fill="#ffffff" fill-opacity="0.06"/>
  </g>
  <g opacity="0.95">
    <circle cx="420" cy="260" r="10" fill="#ffffff" fill-opacity="0.65"/>
    <circle cx="520" cy="220" r="5" fill="#ffffff" fill-opacity="0.55"/>
    <circle cx="610" cy="290" r="7" fill="#ffffff" fill-opacity="0.5"/>
    <circle cx="760" cy="240" r="6" fill="#ffffff" fill-opacity="0.45"/>
  </g>
</svg>

