<svg xmlns="http://www.w3.org/2000/svg" width="1920" height="1080" viewBox="0 0 1920 1080">
  <defs>
    <linearGradient id="bg" x1="0" x2="1" y1="0" y2="1">
      <stop offset="0" stop-color="#f5f5f5"/>
      <stop offset="0.45" stop-color="#ffffff"/>
      <stop offset="1" stop-color="#dff2dc"/>
    </linearGradient>
    <linearGradient id="accent" x1="0" x2="1" y1="1" y2="0">
      <stop offset="0" stop-color="#54b144"/>
      <stop offset="1" stop-color="#222d25"/>
    </linearGradient>
    <filter id="shadow" x="-20%" y="-20%" width="140%" height="140%">
      <feDropShadow dx="0" dy="18" stdDeviation="18" flood-color="#000" flood-opacity="0.16"/>
    </filter>
  </defs>
  <rect width="1920" height="1080" fill="url(#bg)"/>
  <path d="M0 840 C 320 700, 640 980, 960 840 S 1600 720, 1920 840 L 1920 1080 L 0 1080 Z" fill="#54b144" fill-opacity="0.12"/>
  <g filter="url(#shadow)">
    <rect x="240" y="210" width="620" height="660" rx="40" fill="#ffffff"/>
    <rect x="980" y="260" width="700" height="560" rx="40" fill="#ffffff"/>
  </g>
  <g opacity="0.95">
    <rect x="300" y="270" width="500" height="320" rx="26" fill="url(#accent)" opacity="0.85"/>
    <circle cx="1280" cy="430" r="150" fill="#54b144" fill-opacity="0.22"/>
    <circle cx="1520" cy="520" r="110" fill="#222d25" fill-opacity="0.12"/>
    <rect x="1040" y="620" width="580" height="120" rx="24" fill="#f5f5f5"/>
    <rect x="1040" y="770" width="420" height="40" rx="20" fill="#54b144" fill-opacity="0.22"/>
  </g>
</svg>

