<svg xmlns="http://www.w3.org/2000/svg" width="1400" height="760" viewBox="0 0 1400 760">
  <defs>
    <linearGradient id="g" x1="0" x2="1" y1="0" y2="1">
      <stop offset="0" stop-color="#54b144"/>
      <stop offset="1" stop-color="#222d25"/>
    </linearGradient>
    <filter id="shadow" x="-20%" y="-20%" width="140%" height="140%">
      <feDropShadow dx="0" dy="18" stdDeviation="18" flood-color="#000" flood-opacity="0.16"/>
    </filter>
  </defs>
  <rect width="1400" height="760" fill="#f5f5f5"/>
  <g filter="url(#shadow)">
    <rect x="70" y="70" width="1260" height="620" rx="34" fill="#ffffff"/>
  </g>

  <rect x="120" y="130" width="520" height="90" rx="22" fill="url(#g)" opacity="0.92"/>
  <rect x="120" y="250" width="520" height="140" rx="26" fill="#f5f5f5"/>
  <rect x="120" y="420" width="520" height="200" rx="26" fill="#f5f5f5"/>

  <rect x="710" y="130" width="570" height="180" rx="26" fill="#f5f5f5"/>
  <rect x="710" y="340" width="570" height="280" rx="26" fill="#f5f5f5"/>

  <circle cx="780" cy="210" r="12" fill="#54b144"/>
  <circle cx="820" cy="210" r="12" fill="#54b144" fill-opacity="0.55"/>
  <circle cx="860" cy="210" r="12" fill="#54b144" fill-opacity="0.25"/>

  <path d="M410 220 C 520 250, 580 300, 650 350" fill="none" stroke="#54b144" stroke-opacity="0.40" stroke-width="10" stroke-linecap="round"/>
  <path d="M650 350 C 740 420, 860 470, 995 510" fill="none" stroke="#222d25" stroke-opacity="0.20" stroke-width="10" stroke-linecap="round"/>

  <circle cx="650" cy="350" r="18" fill="#54b144"/>
  <circle cx="995" cy="510" r="18" fill="#222d25" fill-opacity="0.55"/>
</svg>

